<svg width="32" height="32" viewBox="0 0 32 32" fill="none" xmlns="http://www.w3.org/2000/svg">
<path d="M16.0022 3.33337C15.3889 3.33337 14.7622 3.38671 14.1355 3.52004C10.4555 4.22671 7.52221 7.20004 6.82888 10.88C6.18888 14.36 7.46888 17.56 9.78888 19.6267C10.3622 20.1334 10.6689 20.84 10.6689 21.5867V24.6667C10.6689 26.1334 11.8689 27.3334 13.3355 27.3334H13.7089C14.1755 28.1334 15.0155 28.6667 16.0022 28.6667C16.9889 28.6667 17.8422 28.1334 18.2955 27.3334H18.6689C20.1355 27.3334 21.3355 26.1334 21.3355 24.6667V21.5867C21.3355 20.8534 21.6289 20.1334 22.1889 19.64C24.1222 17.9334 25.3355 15.44 25.3355 12.6667C25.3355 7.50671 21.1622 3.33337 16.0022 3.33337ZM16.6689 18H15.3355V14.5467L12.8955 12.12L13.8422 11.1734L16.0022 13.3334L18.1622 11.1734L19.1089 12.12L16.6689 14.56V18ZM18.0022 24.6667C17.9889 24.6667 17.9755 24.6534 17.9622 24.6534V24.6667H14.0422V24.6534C14.0289 24.6534 14.0155 24.6667 14.0022 24.6667C13.6289 24.6667 13.3355 24.3734 13.3355 24C13.3355 23.6267 13.6289 23.3334 14.0022 23.3334C14.0155 23.3334 14.0289 23.3467 14.0422 23.3467V23.3334H17.9622V23.3467C17.9755 23.3467 17.9889 23.3334 18.0022 23.3334C18.3755 23.3334 18.6689 23.6267 18.6689 24C18.6689 24.3734 18.3755 24.6667 18.0022 24.6667ZM18.0022 22H14.0022C13.6289 22 13.3355 21.7067 13.3355 21.3334C13.3355 20.96 13.6289 20.6667 14.0022 20.6667H18.0022C18.3755 20.6667 18.6689 20.96 18.6689 21.3334C18.6689 21.7067 18.3755 22 18.0022 22Z" fill="currentColor"/>
</svg>
