<svg width="32" height="32" viewBox="0 0 32 32" fill="none" xmlns="http://www.w3.org/2000/svg">
<path d="M25.3333 4H6.65333C5.18667 4 4 5.2 4 6.66667L4.01333 25.3333C4.01333 26.8 5.2 28 6.66667 28H20L28 20V6.66667C28 5.2 26.8 4 25.3333 4ZM10.6667 10.6667H21.3333C22.0667 10.6667 22.6667 11.2667 22.6667 12C22.6667 12.7333 22.0667 13.3333 21.3333 13.3333H10.6667C9.93333 13.3333 9.33333 12.7333 9.33333 12C9.33333 11.2667 9.93333 10.6667 10.6667 10.6667ZM14.6667 18.6667H10.6667C9.93333 18.6667 9.33333 18.0667 9.33333 17.3333C9.33333 16.6 9.93333 16 10.6667 16H14.6667C15.4 16 16 16.6 16 17.3333C16 18.0667 15.4 18.6667 14.6667 18.6667ZM18.6667 26V20C18.6667 19.2667 19.2667 18.6667 20 18.6667H26L18.6667 26Z" fill="currentColor"/>
</svg>
