<svg width="28" height="28" viewBox="0 0 28 28" fill="none" xmlns="http://www.w3.org/2000/svg">
<path d="M21 18.76C20.1133 18.76 19.32 19.11 18.7133 19.6583L10.395 14.8167C10.4533 14.5483 10.5 14.28 10.5 14C10.5 13.72 10.4533 13.4517 10.395 13.1833L18.62 8.38834C19.25 8.97168 20.0783 9.33334 21 9.33334C21.9283 9.33334 22.8185 8.96459 23.4749 8.30822C24.1313 7.65184 24.5 6.7616 24.5 5.83334C24.5 4.90509 24.1313 4.01485 23.4749 3.35847C22.8185 2.70209 21.9283 2.33334 21 2.33334C20.0717 2.33334 19.1815 2.70209 18.5251 3.35847C17.8687 4.01485 17.5 4.90509 17.5 5.83334C17.5 6.11334 17.5467 6.38168 17.605 6.65001L9.38 11.445C8.75 10.8617 7.92167 10.5 7 10.5C6.07174 10.5 5.1815 10.8688 4.52513 11.5251C3.86875 12.1815 3.5 13.0718 3.5 14C3.5 14.9283 3.86875 15.8185 4.52513 16.4749C5.1815 17.1313 6.07174 17.5 7 17.5C7.92167 17.5 8.75 17.1383 9.38 16.555L17.6867 21.3967C17.6283 21.6417 17.5933 21.8983 17.5933 22.1667C17.5933 24.045 19.1217 25.5617 21 25.5617C22.8783 25.5617 24.4067 24.045 24.4067 22.1667C24.4067 21.2632 24.0478 20.3967 23.4089 19.7578C22.77 19.1189 21.9035 18.76 21 18.76Z" fill="#ADADAD"/>
</svg>
