<svg width="16" height="16" viewBox="0 0 14 14" fill="none" xmlns="http://www.w3.org/2000/svg">
<path id="Vector" d="M4.9 6.825C4.66794 6.825 4.44538 6.91719 4.28128 7.08128C4.11719 7.24538 4.025 7.46794 4.025 7.7C4.025 7.93206 4.11719 8.15462 4.28128 8.31872C4.44538 8.48281 4.66794 8.575 4.9 8.575C5.01491 8.575 5.12869 8.55237 5.23485 8.50839C5.34101 8.46442 5.43747 8.39997 5.51872 8.31872C5.59997 8.23747 5.66442 8.14101 5.70839 8.03485C5.75237 7.92869 5.775 7.81491 5.775 7.7C5.775 7.58509 5.75237 7.47131 5.70839 7.36515C5.66442 7.25899 5.59997 7.16253 5.51872 7.08128C5.43747 7.00003 5.34101 6.93558 5.23485 6.89161C5.12869 6.84763 5.01491 6.825 4.9 6.825ZM9.1 6.825C8.86794 6.825 8.64538 6.91719 8.48128 7.08128C8.31719 7.24538 8.225 7.46794 8.225 7.7C8.225 7.93206 8.31719 8.15462 8.48128 8.31872C8.64538 8.48281 8.86794 8.575 9.1 8.575C9.33206 8.575 9.55462 8.48281 9.71872 8.31872C9.88281 8.15462 9.975 7.93206 9.975 7.7C9.975 7.46794 9.88281 7.24538 9.71872 7.08128C9.55462 6.91719 9.33206 6.825 9.1 6.825ZM7 0C6.08075 0 5.1705 0.18106 4.32122 0.532843C3.47194 0.884626 2.70026 1.40024 2.05025 2.05025C0.737498 3.36301 0 5.14348 0 7C0 8.85651 0.737498 10.637 2.05025 11.9497C2.70026 12.5998 3.47194 13.1154 4.32122 13.4672C5.1705 13.8189 6.08075 14 7 14C8.85651 14 10.637 13.2625 11.9497 11.9497C13.2625 10.637 14 8.85651 14 7C14 6.08075 13.8189 5.1705 13.4672 4.32122C13.1154 3.47194 12.5998 2.70026 11.9497 2.05025C11.2997 1.40024 10.5281 0.884626 9.67878 0.532843C8.82951 0.18106 7.91925 0 7 0ZM7 12.6C3.913 12.6 1.4 10.087 1.4 7C1.4 6.797 1.4 6.594 1.435 6.398C3.087 5.663 4.396 4.312 5.082 2.639C6.349 4.431 8.435 5.6 10.794 5.6C11.34 5.6 11.865 5.537 12.369 5.418C12.516 5.915 12.6 6.447 12.6 7C12.6 10.087 10.087 12.6 7 12.6Z" fill="#393939"/>
</svg>
