<svg width="36" height="36" viewBox="0 0 36 36" fill="none" xmlns="http://www.w3.org/2000/svg">
<g id="emoji_objects">
<path id="Vector" d="M18.0024 3.75C17.3124 3.75 16.6074 3.81 15.9024 3.96C11.7624 4.755 8.46243 8.1 7.68243 12.24C6.96243 16.155 8.40243 19.755 11.0124 22.08C11.6574 22.65 12.0024 23.445 12.0024 24.285V27.75C12.0024 29.4 13.3524 30.75 15.0024 30.75H15.4224C15.9474 31.65 16.8924 32.25 18.0024 32.25C19.1124 32.25 20.0724 31.65 20.5824 30.75H21.0024C22.6524 30.75 24.0024 29.4 24.0024 27.75V24.285C24.0024 23.46 24.3324 22.65 24.9624 22.095C27.1374 20.175 28.5024 17.37 28.5024 14.25C28.5024 8.445 23.8074 3.75 18.0024 3.75ZM18.7524 20.25H17.2524V16.365L14.5074 13.635L15.5724 12.57L18.0024 15L20.4324 12.57L21.4974 13.635L18.7524 16.38V20.25ZM20.2524 27.75C20.2374 27.75 20.2224 27.735 20.2074 27.735V27.75H15.7974V27.735C15.7824 27.735 15.7674 27.75 15.7524 27.75C15.3324 27.75 15.0024 27.42 15.0024 27C15.0024 26.58 15.3324 26.25 15.7524 26.25C15.7674 26.25 15.7824 26.265 15.7974 26.265V26.25H20.2074V26.265C20.2224 26.265 20.2374 26.25 20.2524 26.25C20.6724 26.25 21.0024 26.58 21.0024 27C21.0024 27.42 20.6724 27.75 20.2524 27.75ZM20.2524 24.75H15.7524C15.3324 24.75 15.0024 24.42 15.0024 24C15.0024 23.58 15.3324 23.25 15.7524 23.25H20.2524C20.6724 23.25 21.0024 23.58 21.0024 24C21.0024 24.42 20.6724 24.75 20.2524 24.75Z" fill="#242424"/>
</g>
</svg>
