<svg width="12" height="12" viewBox="0 0 12 12" fill="none" xmlns="http://www.w3.org/2000/svg">
<g id="alarm">
<path id="Vector" d="M7.93488 7.57038L6.24988 6.57038V4.30538C6.24988 4.10538 6.08988 3.94538 5.88988 3.94538H5.85988C5.65988 3.94538 5.49988 4.10538 5.49988 4.30538V6.66538C5.49988 6.84038 5.58988 7.00538 5.74488 7.09538L7.56988 8.19038C7.73988 8.29038 7.95988 8.24038 8.05988 8.07038C8.16488 7.89538 8.10988 7.67038 7.93488 7.57038ZM10.5899 2.45038L9.04988 1.17038C8.83988 0.995383 8.52488 1.02038 8.34488 1.23538C8.16988 1.44538 8.19988 1.76038 8.40988 1.94038L9.94488 3.22038C10.1549 3.39538 10.4699 3.37038 10.6499 3.15538C10.8299 2.94538 10.7999 2.63038 10.5899 2.45038ZM2.04988 3.22038L3.58488 1.94038C3.79988 1.76038 3.82988 1.44538 3.64988 1.23538C3.47488 1.02038 3.15988 0.995383 2.94988 1.17038L1.40988 2.45038C1.19988 2.63038 1.16988 2.94538 1.34988 3.15538C1.52488 3.37038 1.83988 3.39538 2.04988 3.22038ZM5.99988 1.94538C3.51488 1.94538 1.49988 3.96038 1.49988 6.44538C1.49988 8.93038 3.51488 10.9454 5.99988 10.9454C8.48488 10.9454 10.4999 8.93038 10.4999 6.44538C10.4999 3.96038 8.48488 1.94538 5.99988 1.94538ZM5.99988 9.94538C4.06988 9.94538 2.49988 8.37538 2.49988 6.44538C2.49988 4.51538 4.06988 2.94538 5.99988 2.94538C7.92988 2.94538 9.49988 4.51538 9.49988 6.44538C9.49988 8.37538 7.92988 9.94538 5.99988 9.94538Z" fill="#434343"/>
</g>
</svg>
