<svg width="21" height="20" viewBox="0 0 21 20" fill="none" xmlns="http://www.w3.org/2000/svg">
<path d="M10.6592 0C5.15918 0 0.65918 3.97778 0.65918 8.88889C0.70918 11.2778 1.71918 13.5222 3.40918 15C3.40918 15.6667 2.98918 17.4111 0.65918 20C3.02918 19.8778 5.29918 18.8889 7.12918 17.2222C8.26918 17.5889 9.46918 17.7778 10.6592 17.7778C16.1592 17.7778 20.6592 13.8 20.6592 8.88889C20.6592 3.97778 16.1592 0 10.6592 0ZM10.6592 15.5556C6.23918 15.5556 2.65918 12.5667 2.65918 8.88889C2.65918 5.21111 6.23918 2.22222 10.6592 2.22222C15.0792 2.22222 18.6592 5.21111 18.6592 8.88889C18.6592 12.5667 15.0792 15.5556 10.6592 15.5556ZM9.65918 11.1111V13.3333H11.6592V11.1111H9.65918ZM9.65918 8.88889H11.6592V4.44444H9.65918V8.88889Z" fill="currentColor"/>
</svg>
