<svg width="30" height="11" viewBox="0 0 30 11" fill="none" xmlns="http://www.w3.org/2000/svg">
<path d="M0.533406 7.288H1.38541C2.05741 7.288 2.65741 7.28 3.18541 7.264C3.72141 7.24 4.22541 7.204 4.69741 7.156C5.17741 7.108 5.66541 7.04 6.16141 6.952L6.29341 7.984C5.78141 8.08 5.27741 8.152 4.78141 8.2C4.29341 8.248 3.77741 8.284 3.23341 8.308C2.68941 8.324 2.07341 8.332 1.38541 8.332H0.533406V7.288ZM0.533406 1.036H5.50141V2.044H1.78141V7.672H0.533406V1.036ZM7.84141 0.0159998H9.10141V11.008H7.84141V0.0159998ZM4.91341 3.916H8.38141V4.948H4.91341V3.916ZM10.0325 8.62H19.9685V9.652H10.0325V8.62ZM14.3525 6.112H15.6125V8.884H14.3525V6.112ZM11.1485 0.76H12.3965V2.596H17.5805V0.76H18.8285V6.412H11.1485V0.76ZM12.3965 3.604V5.404H17.5805V3.604H12.3965ZM27.8715 0.0159998H29.1315V10.984H27.8715V0.0159998ZM24.6435 1.18H25.8915C25.8915 1.996 25.8035 2.776 25.6275 3.52C25.4515 4.264 25.1635 4.972 24.7635 5.644C24.3715 6.308 23.8515 6.924 23.2035 7.492C22.5635 8.06 21.7715 8.572 20.8275 9.028L20.1555 8.032C21.2195 7.52 22.0795 6.936 22.7355 6.28C23.3915 5.624 23.8715 4.892 24.1755 4.084C24.4875 3.268 24.6435 2.372 24.6435 1.396V1.18ZM20.6955 1.18H25.2075V2.188H20.6955V1.18Z" fill="#666666"/>
</svg>
