<svg width="26" height="26" viewBox="0 0 26 26" fill="none" xmlns="http://www.w3.org/2000/svg">
<g id="search">
<path id="Vector" d="M17.308 15.6775H16.4521L16.1488 15.385C17.4488 13.8684 18.1205 11.7992 17.7521 9.60004C17.243 6.58837 14.7296 4.18337 11.6963 3.81504C7.1138 3.2517 3.25714 7.10837 3.82047 11.6909C4.1888 14.7242 6.5938 17.2375 9.60547 17.7467C11.8046 18.115 13.8738 17.4434 15.3905 16.1434L15.683 16.4467V17.3025L20.2871 21.9067C20.7313 22.3509 21.4571 22.3509 21.9013 21.9067C22.3455 21.4625 22.3455 20.7367 21.9013 20.2925L17.308 15.6775ZM10.808 15.6775C8.11047 15.6775 5.93297 13.5 5.93297 10.8025C5.93297 8.10504 8.11047 5.92754 10.808 5.92754C13.5055 5.92754 15.683 8.10504 15.683 10.8025C15.683 13.5 13.5055 15.6775 10.808 15.6775Z" fill="#434343"/>
</g>
</svg>
