<svg width="26" height="26" viewBox="0 0 26 26" fill="none" xmlns="http://www.w3.org/2000/svg">
<g id="notifications">
<path id="Vector" d="M13.0014 23.5625C14.1931 23.5625 15.1681 22.5875 15.1681 21.3958H10.8347C10.8347 22.5875 11.7989 23.5625 13.0014 23.5625ZM19.5014 17.0625V11.6458C19.5014 8.32 17.7247 5.53583 14.6264 4.79917V4.0625C14.6264 3.16333 13.9006 2.4375 13.0014 2.4375C12.1022 2.4375 11.3764 3.16333 11.3764 4.0625V4.79917C8.26723 5.53583 6.5014 8.30917 6.5014 11.6458V17.0625L5.1039 18.46C4.4214 19.1425 4.89807 20.3125 5.86223 20.3125H20.1297C21.0939 20.3125 21.5814 19.1425 20.8989 18.46L19.5014 17.0625Z" fill="#434343"/>
</g>
</svg>
