<svg width="25" height="36" viewBox="0 0 25 36" fill="none" xmlns="http://www.w3.org/2000/svg">
<path d="M12.2744 0L22.2744 6.66667V20H16.0244V12.2222H8.52441V20H2.27441V6.66667L12.2744 0Z" fill="currentColor"/>
<path d="M5.09088 29.6519V30.0897H1.40093V29.6519H5.09088ZM1.52184 26.9293V33H1.009V26.9293H1.52184ZM5.50366 26.9293V33H4.99082V26.9293H5.50366ZM11.5368 29.6394V30.2899C11.5368 30.7151 11.4812 31.1001 11.3701 31.4448C11.2616 31.7867 11.1032 32.0799 10.8947 32.3246C10.689 32.5692 10.4417 32.7568 10.1526 32.8874C9.8635 33.0181 9.53828 33.0834 9.17693 33.0834C8.82392 33.0834 8.50148 33.0181 8.20962 32.8874C7.92054 32.7568 7.67176 32.5692 7.46329 32.3246C7.25482 32.0799 7.0936 31.7867 6.97964 31.4448C6.86567 31.1001 6.80869 30.7151 6.80869 30.2899V29.6394C6.80869 29.2142 6.86428 28.8306 6.97547 28.4887C7.08943 28.144 7.25065 27.8494 7.45912 27.6047C7.66759 27.3601 7.91637 27.1725 8.20545 27.0419C8.49453 26.9112 8.81558 26.8459 9.16859 26.8459C9.52994 26.8459 9.85516 26.9112 10.1442 27.0419C10.4333 27.1725 10.6821 27.3601 10.8906 27.6047C11.099 27.8494 11.2589 28.144 11.3701 28.4887C11.4812 28.8306 11.5368 29.2142 11.5368 29.6394ZM11.0282 30.2899V29.6311C11.0282 29.2725 10.9865 28.9501 10.9031 28.6638C10.8225 28.3775 10.7016 28.1329 10.5403 27.93C10.3819 27.7271 10.1873 27.5714 9.95662 27.463C9.72591 27.3546 9.46323 27.3004 9.16859 27.3004C8.88229 27.3004 8.62518 27.3546 8.39725 27.463C8.16932 27.5714 7.97474 27.7271 7.81352 27.93C7.65509 28.1329 7.53278 28.3775 7.44661 28.6638C7.36323 28.9501 7.32153 29.2725 7.32153 29.6311V30.2899C7.32153 30.6512 7.36323 30.9764 7.44661 31.2655C7.53278 31.5518 7.65648 31.7978 7.81769 32.0035C7.97891 32.2064 8.17349 32.3621 8.40142 32.4705C8.63212 32.5789 8.89063 32.6331 9.17693 32.6331C9.47435 32.6331 9.73703 32.5789 9.96495 32.4705C10.1929 32.3621 10.3861 32.2064 10.5445 32.0035C10.7029 31.7978 10.8225 31.5518 10.9031 31.2655C10.9865 30.9764 11.0282 30.6512 11.0282 30.2899ZM12.992 26.9293H13.509L15.7521 32.2745L17.9995 26.9293H18.5123L15.9481 33H15.5562L12.992 26.9293ZM12.8335 26.9293H13.288L13.3422 30.3482V33H12.8335V26.9293ZM18.2246 26.9293H18.6791V33H18.1662V30.3482L18.2246 26.9293ZM23.9951 32.5622V33H20.5803V32.5622H23.9951ZM20.7346 26.9293V33H20.2218V26.9293H20.7346ZM23.5698 29.6519V30.0897H20.5803V29.6519H23.5698ZM23.9743 26.9293V27.3713H20.5803V26.9293H23.9743Z" fill="currentColor"/>
</svg>
