<svg width="54" height="35" viewBox="0 0 54 35" fill="none" xmlns="http://www.w3.org/2000/svg">
<path d="M27.085 0C28.411 0 29.6828 0.526784 30.6205 1.46447C31.5582 2.40215 32.085 3.67392 32.085 5C32.085 6.32608 31.5582 7.59785 30.6205 8.53553C29.6828 9.47322 28.411 10 27.085 10C25.7589 10 24.4871 9.47322 23.5494 8.53553C22.6117 7.59785 22.085 6.32608 22.085 5C22.085 3.67392 22.6117 2.40215 23.5494 1.46447C24.4871 0.526784 25.7589 0 27.085 0ZM27.085 12.5C32.61 12.5 37.085 14.7375 37.085 17.5V20H17.085V17.5C17.085 14.7375 21.56 12.5 27.085 12.5Z" fill="currentColor"/>
<path d="M21.823 25.9293H22.34L24.5831 31.2745L26.8305 25.9293H27.3433L24.7791 32H24.3872L21.823 25.9293ZM21.6645 25.9293H22.119L22.1732 29.3482V32H21.6645V25.9293ZM27.0556 25.9293H27.5101V32H26.9972V29.3482L27.0556 25.9293ZM28.8735 25.9293L30.7122 29.2357L32.5676 25.9293H33.1597L30.9707 29.711V32H30.4579V29.711L28.2647 25.9293H28.8735Z" fill="currentColor"/>
</svg>
