<svg width="21" height="20" viewBox="0 0 21 20" fill="none" xmlns="http://www.w3.org/2000/svg">
<path d="M10.085 0C11.411 0 12.6828 0.526784 13.6205 1.46447C14.5582 2.40215 15.085 3.67392 15.085 5C15.085 6.32608 14.5582 7.59785 13.6205 8.53553C12.6828 9.47322 11.411 10 10.085 10C8.75888 10 7.48711 9.47322 6.54943 8.53553C5.61175 7.59785 5.08496 6.32608 5.08496 5C5.08496 3.67392 5.61175 2.40215 6.54943 1.46447C7.48711 0.526784 8.75888 0 10.085 0ZM10.085 12.5C15.61 12.5 20.085 14.7375 20.085 17.5V20H0.0849609V17.5C0.0849609 14.7375 4.55996 12.5 10.085 12.5Z" fill="currentColor"/>
</svg>
