<svg width="60" height="30" viewBox="0 0 44 18" fill="none" xmlns="http://www.w3.org/2000/svg">
<g filter="url(#filter0_d_563_2198)">
<rect x="2" y="2" width="40" height="14" rx="7" fill="#FFB800"/>
</g>
<path d="M17.3398 8.6875V9.46484H14.3203V8.6875H17.3398ZM14.5625 6.3125V12H13.582V6.3125H14.5625ZM18.0938 6.3125V12H17.1172V6.3125H18.0938ZM23.7969 9V9.3125C23.7969 9.74219 23.7409 10.1276 23.6289 10.4688C23.5169 10.8099 23.3568 11.1003 23.1484 11.3398C22.9427 11.5794 22.6953 11.763 22.4062 11.8906C22.1172 12.0156 21.7969 12.0781 21.4453 12.0781C21.0964 12.0781 20.7773 12.0156 20.4883 11.8906C20.2018 11.763 19.9531 11.5794 19.7422 11.3398C19.5312 11.1003 19.3672 10.8099 19.25 10.4688C19.1354 10.1276 19.0781 9.74219 19.0781 9.3125V9C19.0781 8.57031 19.1354 8.1862 19.25 7.84766C19.3646 7.50651 19.526 7.21615 19.7344 6.97656C19.9453 6.73438 20.194 6.55078 20.4805 6.42578C20.7695 6.29818 21.0885 6.23438 21.4375 6.23438C21.7891 6.23438 22.1094 6.29818 22.3984 6.42578C22.6875 6.55078 22.9362 6.73438 23.1445 6.97656C23.3529 7.21615 23.513 7.50651 23.625 7.84766C23.7396 8.1862 23.7969 8.57031 23.7969 9ZM22.8164 9.3125V8.99219C22.8164 8.67448 22.7852 8.39453 22.7227 8.15234C22.6628 7.90755 22.5729 7.70312 22.4531 7.53906C22.3359 7.3724 22.1914 7.2474 22.0195 7.16406C21.8477 7.07812 21.6536 7.03516 21.4375 7.03516C21.2214 7.03516 21.0286 7.07812 20.8594 7.16406C20.6901 7.2474 20.5456 7.3724 20.4258 7.53906C20.3086 7.70312 20.2188 7.90755 20.1562 8.15234C20.0938 8.39453 20.0625 8.67448 20.0625 8.99219V9.3125C20.0625 9.63021 20.0938 9.91146 20.1562 10.1562C20.2188 10.401 20.3099 10.6081 20.4297 10.7773C20.5521 10.944 20.6979 11.0703 20.8672 11.1562C21.0365 11.2396 21.2292 11.2812 21.4453 11.2812C21.6641 11.2812 21.8581 11.2396 22.0273 11.1562C22.1966 11.0703 22.3398 10.944 22.457 10.7773C22.5742 10.6081 22.6628 10.401 22.7227 10.1562C22.7852 9.91146 22.8164 9.63021 22.8164 9.3125ZM26.9219 6.3125V12H25.9492V6.3125H26.9219ZM28.707 6.3125V7.09375H24.1797V6.3125H28.707ZM30.4492 6.3125L30.3555 10.3242H29.5508L29.4531 6.3125H30.4492ZM29.4258 11.5547C29.4258 11.4115 29.4727 11.2917 29.5664 11.1953C29.6628 11.0964 29.7956 11.0469 29.9648 11.0469C30.1315 11.0469 30.263 11.0964 30.3594 11.1953C30.4557 11.2917 30.5039 11.4115 30.5039 11.5547C30.5039 11.6927 30.4557 11.8112 30.3594 11.9102C30.263 12.0065 30.1315 12.0547 29.9648 12.0547C29.7956 12.0547 29.6628 12.0065 29.5664 11.9102C29.4727 11.8112 29.4258 11.6927 29.4258 11.5547Z" fill="white"/>
<defs>
<filter id="filter0_d_563_2198" x="0" y="0" width="44" height="18" filterUnits="userSpaceOnUse" color-interpolation-filters="sRGB">
<feFlood flood-opacity="0" result="BackgroundImageFix"/>
<feColorMatrix in="SourceAlpha" type="matrix" values="0 0 0 0 0 0 0 0 0 0 0 0 0 0 0 0 0 0 127 0" result="hardAlpha"/>
<feOffset/>
<feGaussianBlur stdDeviation="1"/>
<feComposite in2="hardAlpha" operator="out"/>
<feColorMatrix type="matrix" values="0 0 0 0 0 0 0 0 0 0 0 0 0 0 0 0 0 0 0.25 0"/>
<feBlend mode="normal" in2="BackgroundImageFix" result="effect1_dropShadow_563_2198"/>
<feBlend mode="normal" in="SourceGraphic" in2="effect1_dropShadow_563_2198" result="shape"/>
</filter>
</defs>
</svg>
