<svg width="25" height="34" viewBox="0 0 25 34" fill="none" xmlns="http://www.w3.org/2000/svg">
<path d="M12.6592 0C7.15918 0 2.65918 3.97778 2.65918 8.88889C2.70918 11.2778 3.71918 13.5222 5.40918 15C5.40918 15.6667 4.98918 17.4111 2.65918 20C5.02918 19.8778 7.29918 18.8889 9.12918 17.2222C10.2692 17.5889 11.4692 17.7778 12.6592 17.7778C18.1592 17.7778 22.6592 13.8 22.6592 8.88889C22.6592 3.97778 18.1592 0 12.6592 0ZM12.6592 15.5556C8.23918 15.5556 4.65918 12.5667 4.65918 8.88889C4.65918 5.21111 8.23918 2.22222 12.6592 2.22222C17.0792 2.22222 20.6592 5.21111 20.6592 8.88889C20.6592 12.5667 17.0792 15.5556 12.6592 15.5556ZM11.6592 11.1111V13.3333H13.6592V11.1111H11.6592ZM11.6592 8.88889H13.6592V4.44444H11.6592V8.88889Z" fill="currentColor"/>
<path d="M2.61493 26.9293V33H2.10209V26.9293H2.61493ZM7.70164 31.5073C7.70164 31.3406 7.67385 31.1919 7.61825 31.0612C7.56266 30.9306 7.47093 30.8138 7.34307 30.711C7.21799 30.6054 7.04843 30.5081 6.8344 30.4191C6.62315 30.3274 6.35908 30.2371 6.04221 30.1481C5.73923 30.0619 5.46543 29.9674 5.22083 29.8646C4.97622 29.7617 4.76636 29.6436 4.59124 29.5102C4.41891 29.3768 4.28687 29.2211 4.19515 29.0432C4.10342 28.8625 4.05755 28.6527 4.05755 28.4136C4.05755 28.1801 4.10759 27.9675 4.20765 27.7757C4.30772 27.5839 4.44809 27.4185 4.62877 27.2795C4.81222 27.1406 5.02764 27.0335 5.27503 26.9585C5.5252 26.8834 5.79899 26.8459 6.09641 26.8459C6.52169 26.8459 6.8886 26.9265 7.19714 27.0877C7.50846 27.249 7.7489 27.4672 7.91845 27.7423C8.09079 28.0147 8.17696 28.3205 8.17696 28.6596H7.66412C7.66412 28.3956 7.60158 28.1607 7.47649 27.955C7.35419 27.7465 7.17629 27.5839 6.94281 27.4672C6.7121 27.3476 6.42996 27.2879 6.09641 27.2879C5.76285 27.2879 5.48211 27.3393 5.25418 27.4421C5.02903 27.5422 4.85809 27.677 4.74134 27.8466C4.62738 28.0134 4.5704 28.1996 4.5704 28.4053C4.5704 28.5498 4.59819 28.6832 4.65378 28.8055C4.70938 28.9251 4.79971 29.0376 4.9248 29.1433C5.05266 29.2461 5.22083 29.3434 5.4293 29.4351C5.63777 29.5241 5.89489 29.6089 6.20065 29.6895C6.52308 29.7784 6.80938 29.8771 7.05955 29.9855C7.30972 30.0939 7.52097 30.219 7.6933 30.3607C7.86564 30.4997 7.99628 30.6623 8.08523 30.8486C8.17418 31.0348 8.21865 31.2516 8.21865 31.499C8.21865 31.7464 8.16584 31.9688 8.06021 32.1661C7.95737 32.3607 7.81144 32.5261 7.62242 32.6623C7.43619 32.7985 7.21521 32.9027 6.95948 32.975C6.70654 33.0473 6.42996 33.0834 6.12977 33.0834C5.86014 33.0834 5.59191 33.0486 5.32506 32.9792C5.05822 32.9097 4.81361 32.8026 4.59124 32.6581C4.37165 32.5108 4.19515 32.3218 4.06172 32.0911C3.93108 31.8604 3.86576 31.5852 3.86576 31.2655H4.37443C4.37443 31.5212 4.42586 31.7367 4.5287 31.9118C4.63155 32.0869 4.76775 32.2287 4.93731 32.3371C5.10964 32.4455 5.29866 32.5247 5.50435 32.5747C5.71282 32.622 5.92129 32.6456 6.12977 32.6456C6.44942 32.6456 6.72599 32.5983 6.95948 32.5038C7.19575 32.4093 7.37782 32.2773 7.50568 32.1077C7.63632 31.9354 7.70164 31.7353 7.70164 31.5073ZM12.7633 31.5073C12.7633 31.3406 12.7355 31.1919 12.68 31.0612C12.6244 30.9306 12.5326 30.8138 12.4048 30.711C12.2797 30.6054 12.1101 30.5081 11.8961 30.4191C11.6848 30.3274 11.4208 30.2371 11.1039 30.1481C10.8009 30.0619 10.5271 29.9674 10.2825 29.8646C10.0379 29.7617 9.82806 29.6436 9.65294 29.5102C9.4806 29.3768 9.34857 29.2211 9.25684 29.0432C9.16512 28.8625 9.11925 28.6527 9.11925 28.4136C9.11925 28.1801 9.16928 27.9675 9.26935 27.7757C9.36942 27.5839 9.50979 27.4185 9.69046 27.2795C9.87392 27.1406 10.0893 27.0335 10.3367 26.9585C10.5869 26.8834 10.8607 26.8459 11.1581 26.8459C11.5834 26.8459 11.9503 26.9265 12.2588 27.0877C12.5702 27.249 12.8106 27.4672 12.9802 27.7423C13.1525 28.0147 13.2387 28.3205 13.2387 28.6596H12.7258C12.7258 28.3956 12.6633 28.1607 12.5382 27.955C12.4159 27.7465 12.238 27.5839 12.0045 27.4672C11.7738 27.3476 11.4917 27.2879 11.1581 27.2879C10.8246 27.2879 10.5438 27.3393 10.3159 27.4421C10.0907 27.5422 9.91978 27.677 9.80304 27.8466C9.68907 28.0134 9.63209 28.1996 9.63209 28.4053C9.63209 28.5498 9.65989 28.6832 9.71548 28.8055C9.77107 28.9251 9.86141 29.0376 9.98649 29.1433C10.1144 29.2461 10.2825 29.3434 10.491 29.4351C10.6995 29.5241 10.9566 29.6089 11.2623 29.6895C11.5848 29.7784 11.8711 29.8771 12.1212 29.9855C12.3714 30.0939 12.5827 30.219 12.755 30.3607C12.9273 30.4997 13.058 30.6623 13.1469 30.8486C13.2359 31.0348 13.2803 31.2516 13.2803 31.499C13.2803 31.7464 13.2275 31.9688 13.1219 32.1661C13.0191 32.3607 12.8731 32.5261 12.6841 32.6623C12.4979 32.7985 12.2769 32.9027 12.0212 32.975C11.7682 33.0473 11.4917 33.0834 11.1915 33.0834C10.9218 33.0834 10.6536 33.0486 10.3868 32.9792C10.1199 32.9097 9.87531 32.8026 9.65294 32.6581C9.43335 32.5108 9.25684 32.3218 9.12342 32.0911C8.99278 31.8604 8.92746 31.5852 8.92746 31.2655H9.43613C9.43613 31.5212 9.48755 31.7367 9.5904 31.9118C9.69324 32.0869 9.82945 32.2287 9.999 32.3371C10.1713 32.4455 10.3604 32.5247 10.566 32.5747C10.7745 32.622 10.983 32.6456 11.1915 32.6456C11.5111 32.6456 11.7877 32.5983 12.0212 32.5038C12.2574 32.4093 12.4395 32.2773 12.5674 32.1077C12.698 31.9354 12.7633 31.7353 12.7633 31.5073ZM18.0544 26.9293H18.5672V31.0404C18.5672 31.4962 18.4713 31.8756 18.2795 32.1786C18.0877 32.4816 17.8292 32.7081 17.504 32.8582C17.1816 33.0083 16.8244 33.0834 16.4324 33.0834C16.0294 33.0834 15.6667 33.0083 15.3442 32.8582C15.0218 32.7081 14.7661 32.4816 14.577 32.1786C14.3908 31.8756 14.2977 31.4962 14.2977 31.0404V26.9293H14.8064V31.0404C14.8064 31.3934 14.8759 31.6894 15.0148 31.9285C15.1538 32.1675 15.3456 32.3468 15.5902 32.4663C15.8348 32.5858 16.1156 32.6456 16.4324 32.6456C16.7465 32.6456 17.0259 32.5858 17.2705 32.4663C17.5151 32.3468 17.7069 32.1675 17.8459 31.9285C17.9849 31.6894 18.0544 31.3934 18.0544 31.0404V26.9293ZM23.7832 32.5622V33H20.3684V32.5622H23.7832ZM20.5227 26.9293V33H20.0098V26.9293H20.5227ZM23.3579 29.6519V30.0897H20.3684V29.6519H23.3579ZM23.7623 26.9293V27.3713H20.3684V26.9293H23.7623Z" fill="currentColor"/>
</svg>
