<svg width="64" height="26" viewBox="0 0 64 26" fill="none" xmlns="http://www.w3.org/2000/svg">
<g filter="url(#filter0_d_662_3995)">
<rect x="2" y="2" width="60" height="22" rx="11" fill="#F9F9F9"/>
<path d="M26 11.95C26 11.3395 25.5091 10.85 24.9091 10.85H21.4618L21.9855 8.3365C21.9964 8.2815 22.0018 8.221 22.0018 8.1605C22.0018 7.935 21.9091 7.726 21.7618 7.5775L21.1836 7L17.5945 10.619C17.3927 10.8225 17.2727 11.0975 17.2727 11.4V16.9C17.2727 17.1917 17.3877 17.4715 17.5922 17.6778C17.7968 17.8841 18.0743 18 18.3636 18H23.2727C23.7255 18 24.1127 17.725 24.2764 17.329L25.9236 13.4515C25.9727 13.325 26 13.193 26 13.05V11.95ZM14 18H16.1818V11.4H14V18Z" fill="#B0B0B0"/>
<path d="M34.55 13.94C36.47 13.94 37.7 14.57 37.7 15.61C37.7 16.64 36.47 17.26 34.55 17.26C32.62 17.26 31.4 16.64 31.4 15.61C31.4 14.57 32.62 13.94 34.55 13.94ZM34.55 14.59C33.13 14.59 32.22 14.98 32.22 15.61C32.22 16.23 33.13 16.62 34.55 16.62C35.97 16.62 36.87 16.23 36.87 15.61C36.87 14.98 35.97 14.59 34.55 14.59ZM31.47 8.69H37.29V9.37H31.47V8.69ZM30.5 12.45H38.66V13.12H30.5V12.45ZM33.85 10.71H34.67V12.64H33.85V10.71ZM36.81 8.69H37.62V9.46C37.62 10.19 37.62 10.92 37.38 11.86L36.56 11.76C36.81 10.83 36.81 10.17 36.81 9.46V8.69ZM45.8792 8.24H46.7092V13.36H45.8792V8.24ZM46.4792 10.44H48.0492V11.13H46.4792V10.44ZM43.3792 8.82H44.2592C44.2592 11.1 42.6692 12.74 40.0092 13.46L39.6892 12.8C42.0292 12.16 43.3792 10.85 43.3792 9.19V8.82ZM40.0792 8.82H43.8392V9.49H40.0792V8.82ZM41.0192 13.79H46.7092V17.16H41.0192V13.79ZM45.8892 14.46H41.8392V16.48H45.8892V14.46Z" fill="#B0B0B0"/>
</g>
<defs>
<filter id="filter0_d_662_3995" x="0" y="0" width="64" height="26" filterUnits="userSpaceOnUse" color-interpolation-filters="sRGB">
<feFlood flood-opacity="0" result="BackgroundImageFix"/>
<feColorMatrix in="SourceAlpha" type="matrix" values="0 0 0 0 0 0 0 0 0 0 0 0 0 0 0 0 0 0 127 0" result="hardAlpha"/>
<feOffset/>
<feGaussianBlur stdDeviation="1"/>
<feComposite in2="hardAlpha" operator="out"/>
<feColorMatrix type="matrix" values="0 0 0 0 0 0 0 0 0 0 0 0 0 0 0 0 0 0 0.25 0"/>
<feBlend mode="normal" in2="BackgroundImageFix" result="effect1_dropShadow_662_3995"/>
<feBlend mode="normal" in="SourceGraphic" in2="effect1_dropShadow_662_3995" result="shape"/>
</filter>
</defs>
</svg>
