<svg width="64" height="26" viewBox="0 0 64 26" fill="none" xmlns="http://www.w3.org/2000/svg">
<g filter="url(#filter0_d_662_4000)">
<rect x="2" y="2" width="60" height="22" rx="11" fill="#F9F9F9"/>
</g>
<path d="M16.05 16.4741L16 16.5286L15.945 16.4741C13.57 14.1253 12 12.5722 12 10.9973C12 9.90736 12.75 9.08992 13.75 9.08992C14.52 9.08992 15.27 9.63488 15.535 10.376H16.465C16.73 9.63488 17.48 9.08992 18.25 9.08992C19.25 9.08992 20 9.90736 20 10.9973C20 12.5722 18.43 14.1253 16.05 16.4741ZM18.25 8C17.38 8 16.545 8.44142 16 9.13352C15.455 8.44142 14.62 8 13.75 8C12.21 8 11 9.31335 11 10.9973C11 13.0518 12.7 14.7357 15.275 17.2807L16 18L16.725 17.2807C19.3 14.7357 21 13.0518 21 10.9973C21 9.31335 19.79 8 18.25 8Z" fill="#B0B0B0"/>
<path d="M30.12 9.36H30.84V10.05C30.84 12.02 29.01 13.55 27.2 13.96L26.83 13.27C28.42 12.97 30.12 11.59 30.12 10.05V9.36ZM30.27 9.36H30.99V10.05C30.99 11.6 32.7 12.97 34.28 13.27L33.91 13.96C32.11 13.55 30.27 12.03 30.27 10.05V9.36ZM26.5 15.88H34.69V16.56H26.5V15.88ZM36.6692 9.66H42.4092V10.34H36.6692V9.66ZM35.6992 15.83H43.8692V16.53H35.6992V15.83ZM42.0492 9.66H42.8592V10.77C42.8592 12.1 42.8592 13.33 42.4792 15.18L41.6592 15.1C42.0492 13.36 42.0492 12.07 42.0492 10.77V9.66ZM42.2592 12.16V12.78L36.5492 13.09L36.4292 12.4L42.2592 12.16ZM51.7184 8.74H52.5084V13.75H51.7184V8.74ZM50.2884 10.88H51.9984V11.56H50.2884V10.88ZM49.7284 8.9H50.5084V13.67H49.7284V8.9ZM46.5884 14.17H47.4084V15.2H51.7084V14.17H52.5084V17.66H46.5884V14.17ZM47.4084 15.85V16.98H51.7084V15.85H47.4084ZM45.3084 12.78H45.8884C47.1584 12.78 48.0984 12.73 49.2084 12.51L49.2884 13.18C48.1484 13.41 47.1984 13.45 45.8884 13.45H45.3084V12.78ZM45.2884 9.27H48.6884V11.61H46.1084V13.3H45.3084V10.98H47.8884V9.94H45.2884V9.27Z" fill="#B0B0B0"/>
<defs>
<filter id="filter0_d_662_4000" x="0" y="0" width="64" height="26" filterUnits="userSpaceOnUse" color-interpolation-filters="sRGB">
<feFlood flood-opacity="0" result="BackgroundImageFix"/>
<feColorMatrix in="SourceAlpha" type="matrix" values="0 0 0 0 0 0 0 0 0 0 0 0 0 0 0 0 0 0 127 0" result="hardAlpha"/>
<feOffset/>
<feGaussianBlur stdDeviation="1"/>
<feComposite in2="hardAlpha" operator="out"/>
<feColorMatrix type="matrix" values="0 0 0 0 0 0 0 0 0 0 0 0 0 0 0 0 0 0 0.25 0"/>
<feBlend mode="normal" in2="BackgroundImageFix" result="effect1_dropShadow_662_4000"/>
<feBlend mode="normal" in="SourceGraphic" in2="effect1_dropShadow_662_4000" result="shape"/>
</filter>
</defs>
</svg>
