<svg width="12" height="11" viewBox="0 0 12 11" fill="none" xmlns="http://www.w3.org/2000/svg">
<path id="Vector" d="M12 4.95C12 4.3395 11.5091 3.85 10.9091 3.85H7.46182L7.98546 1.3365C7.99636 1.2815 8.00182 1.221 8.00182 1.1605C8.00182 0.935 7.90909 0.726 7.76182 0.5775L7.18364 0L3.59455 3.619C3.39273 3.8225 3.27273 4.0975 3.27273 4.4V9.9C3.27273 10.1917 3.38766 10.4715 3.59225 10.6778C3.79683 10.8841 4.07431 11 4.36364 11H9.27273C9.72546 11 10.1127 10.725 10.2764 10.329L11.9236 6.4515C11.9727 6.325 12 6.193 12 6.05V4.95ZM0 11H2.18182V4.4H0V11Z" fill="#494949"/>
</svg>
